<svg width="88" height="80" viewBox="0 0 88 80" fill="none" xmlns="http://www.w3.org/2000/svg">
<g clip-path="url(#clip0_33_0)" filter="url(#filter0_d_33_0)">
<path d="M70.4755 14.0107H17.2584V71.1274H70.4755V14.0107Z" fill="url(#paint0_linear_33_0)"/>
<path d="M17.0382 14.0107C17.1024 14.0107 17.1666 14.0383 17.2584 14.0658C17.2584 33.068 17.2584 52.0701 17.2584 71.0998C13.1386 71.421 9.66118 70.3841 6.89939 67.7233C4.94504 65.8332 3.99998 63.6127 3.99998 61.0987C3.99998 52.1986 3.99998 43.3077 3.99998 34.4076C3.99998 31.0127 3.9908 27.6178 3.9908 24.2229C3.9908 20.1215 6.20207 17.1395 10.2668 15.1209C12.3587 14.0933 14.6801 13.9373 17.0382 14.0107Z" fill="url(#paint1_linear_33_0)"/>
<path d="M61.1809 14.0016C63.5573 14.0016 63.7958 14.0016 66.1631 14.0016C66.1631 33.068 66.1631 52.0701 66.1631 71.109C50.0053 71.109 37.7837 71.109 21.5708 71.109C21.5708 52.0793 21.5708 33.0771 21.5708 14.0199C23.9381 14.0199 24.4519 14.0199 26.865 14.0199C26.865 13.7813 26.865 13.5978 26.865 13.4235C26.865 11.3774 26.8742 9.32212 26.8558 7.27601C26.8375 5.84466 27.2228 4.59681 28.3422 3.62422C29.1313 2.94524 30.0397 2.59658 31.0673 2.59658C34.2512 2.5874 37.4259 2.5874 40.6097 2.5874C45.9589 2.5874 51.3174 2.59658 56.6666 2.5874C58.0704 2.5874 59.2357 3.04617 60.1532 4.11051C60.8873 4.96382 61.1625 5.96394 61.1625 7.08333C61.1533 9.23954 61.1625 11.3957 61.1625 13.552C61.1533 13.6712 61.1625 13.8089 61.1809 14.0016ZM32.6088 14.0016C32.829 14.0016 32.9942 14.0016 33.1593 14.0016C35.6917 14.0016 38.2333 14.0016 40.7657 14.0016C45.5002 14.0016 50.2438 14.0016 54.9783 14.0107C55.3545 14.0107 55.4371 13.8914 55.4371 13.5336C55.4187 11.9279 55.4371 10.3222 55.4371 8.71654C55.4371 8.58809 55.4187 8.45963 55.4004 8.322C47.7848 8.322 40.2152 8.322 32.6088 8.322C32.6088 10.2121 32.6088 12.0656 32.6088 14.0016Z" fill="white"/>
<mask id="mask0_33_0" style="mask-type:alpha" maskUnits="userSpaceOnUse" x="21" y="2" width="46" height="70">
<path d="M61.1808 14.0016C63.5573 14.0016 63.7958 14.0016 66.1631 14.0016C66.1631 33.068 66.1631 52.0701 66.1631 71.109C50.0053 71.109 37.7837 71.109 21.5708 71.109C21.5708 52.0793 21.5708 33.0771 21.5708 14.0199C23.938 14.0199 24.4519 14.0199 26.865 14.0199C26.865 13.7813 26.865 13.5978 26.865 13.4235C26.865 11.3774 26.8742 9.32212 26.8558 7.27601C26.8375 5.84466 27.2228 4.59681 28.3422 3.62422C29.1313 2.94524 30.0397 2.59658 31.0673 2.59658C34.2512 2.5874 37.4258 2.5874 40.6097 2.5874C45.9589 2.5874 51.3173 2.59658 56.6666 2.5874C58.0704 2.5874 59.2357 3.04617 60.1532 4.11051C60.8872 4.96382 61.1625 5.96394 61.1625 7.08333C61.1533 9.23954 61.1625 11.3958 61.1625 13.552C61.1533 13.6712 61.1625 13.8089 61.1808 14.0016ZM32.6088 14.0016C32.829 14.0016 32.9941 14.0016 33.1593 14.0016C35.6917 14.0016 38.2333 14.0016 40.7657 14.0016C45.5002 14.0016 50.2438 14.0016 54.9783 14.0107C55.3545 14.0107 55.4371 13.8914 55.4371 13.5336C55.4187 11.9279 55.4371 10.3222 55.4371 8.71654C55.4371 8.58809 55.4187 8.45963 55.4004 8.322C47.7848 8.322 40.2151 8.322 32.6088 8.322C32.6088 10.2121 32.6088 12.0656 32.6088 14.0016Z" fill="#F7F9FC"/>
</mask>
<g mask="url(#mask0_33_0)">
<path d="M62.096 0H25V14.02H62.096V0Z" fill="url(#paint2_linear_33_0)"/>
</g>
<path d="M84 24.0762C84 20.2959 81.9356 17.4791 78.2654 15.433C76.0083 14.176 73.4483 13.9374 70.8242 13.9925C70.4205 14.0016 70.4755 14.2127 70.4755 14.4329C70.4755 21.0391 70.4755 27.6362 70.4755 34.2425C70.4755 45.8493 70.4755 57.447 70.4663 69.0538C70.4663 69.7236 70.4663 70.3934 70.4663 71.1183C72.1179 71.1733 73.6869 71.1825 75.2284 70.8155C80.44 69.586 83.9908 65.7048 83.9908 61.1263C84.0092 48.7854 84 36.4262 84 24.0762Z" fill="url(#paint3_linear_33_0)"/>
<path d="M48.2161 46.7852C48.2161 47.9688 48.2161 49.0882 48.2161 50.2168C48.2161 51.4921 48.2161 52.7675 48.2161 54.0337C48.2161 54.7953 47.8307 55.199 47.0783 55.199C45.0047 55.2082 42.9311 55.2082 40.8574 55.199C40.1693 55.199 39.7839 54.7677 39.7839 54.0429C39.7839 51.7674 39.7839 49.4919 39.7839 47.2164C39.7839 47.088 39.7839 46.9503 39.7839 46.7852C39.6096 46.7852 39.4811 46.7852 39.3435 46.7852C37.1047 46.7852 34.8567 46.7852 32.618 46.7852C31.7279 46.7852 31.3609 46.4273 31.3609 45.5373C31.3609 43.5646 31.3609 41.5919 31.3609 39.6192C31.3609 38.72 31.7188 38.3622 32.6088 38.3622C34.8384 38.3622 37.068 38.3622 39.2976 38.3622C39.4444 38.3622 39.5821 38.3622 39.7747 38.3622C39.7747 38.2154 39.7747 38.0961 39.7747 37.9768C39.7747 35.7013 39.7747 33.4258 39.7747 31.1504C39.7747 30.3062 40.1509 29.9392 40.9951 29.9392C42.9678 29.9392 44.9405 29.9392 46.9132 29.9392C47.8399 29.9392 48.1977 30.2879 48.1977 31.2329C48.2069 33.4901 48.1977 35.738 48.1977 37.9952C48.1977 38.1053 48.1977 38.2154 48.1977 38.3714C48.3445 38.3714 48.473 38.3714 48.5923 38.3714C50.8678 38.3714 53.1432 38.3714 55.4187 38.3805C56.2537 38.3805 56.6115 38.7476 56.6115 39.5825C56.6115 41.5644 56.6115 43.5463 56.6115 45.5282C56.6115 46.4365 56.2629 46.7852 55.3729 46.7852C53.1065 46.7852 50.8402 46.7852 48.5831 46.7944C48.4913 46.7852 48.3812 46.7852 48.2161 46.7852Z" fill="url(#paint4_linear_33_0)"/>
</g>
<defs>
<filter id="filter0_d_33_0" x="0" y="0" width="88" height="79.1549" filterUnits="userSpaceOnUse" color-interpolation-filters="sRGB">
<feFlood flood-opacity="0" result="BackgroundImageFix"/>
<feColorMatrix in="SourceAlpha" type="matrix" values="0 0 0 0 0 0 0 0 0 0 0 0 0 0 0 0 0 0 127 0" result="hardAlpha"/>
<feOffset dy="4"/>
<feGaussianBlur stdDeviation="2"/>
<feComposite in2="hardAlpha" operator="out"/>
<feColorMatrix type="matrix" values="0 0 0 0 0 0 0 0 0 0 0 0 0 0 0 0 0 0 0.25 0"/>
<feBlend mode="normal" in2="BackgroundImageFix" result="effect1_dropShadow_33_0"/>
<feBlend mode="normal" in="SourceGraphic" in2="effect1_dropShadow_33_0" result="shape"/>
</filter>
<linearGradient id="paint0_linear_33_0" x1="17.2597" y1="42.5656" x2="70.473" y2="42.5656" gradientUnits="userSpaceOnUse">
<stop stop-color="#B0F4FF"/>
<stop offset="1" stop-color="#69DCFC"/>
</linearGradient>
<linearGradient id="paint1_linear_33_0" x1="3.99998" y1="42.5746" x2="17.2597" y2="42.5746" gradientUnits="userSpaceOnUse">
<stop stop-color="#6CBCFC"/>
<stop offset="1" stop-color="#458DFC"/>
</linearGradient>
<linearGradient id="paint2_linear_33_0" x1="24.9962" y1="7.00849" x2="62.0944" y2="7.00849" gradientUnits="userSpaceOnUse">
<stop stop-color="#6CBCFC"/>
<stop offset="1" stop-color="#458DFC"/>
</linearGradient>
<linearGradient id="paint3_linear_33_0" x1="70.4686" y1="42.569" x2="84.0007" y2="42.569" gradientUnits="userSpaceOnUse">
<stop stop-color="#6CBCFC"/>
<stop offset="1" stop-color="#458DFC"/>
</linearGradient>
<linearGradient id="paint4_linear_33_0" x1="31.3666" y1="42.5783" x2="56.6299" y2="42.5783" gradientUnits="userSpaceOnUse">
<stop stop-color="#6CBCFC"/>
<stop offset="1" stop-color="#458DFC"/>
</linearGradient>
<clipPath id="clip0_33_0">
<rect width="80" height="71.1549" fill="white" transform="translate(4)"/>
</clipPath>
</defs>
</svg>
